<?xml version="1.0" encoding="utf-8"?>
<!-- Generator: Adobe Illustrator 18.1.1, SVG Export Plug-In . SVG Version: 6.00 Build 0)  -->
<!DOCTYPE svg PUBLIC "-//W3C//DTD SVG 1.1//EN" "http://www.w3.org/Graphics/SVG/1.1/DTD/svg11.dtd">
<svg version="1.1" id="Livello_1" xmlns="http://www.w3.org/2000/svg" xmlns:xlink="http://www.w3.org/1999/xlink" x="0px" y="0px"
	 viewBox="0 0 40 40" enable-background="new 0 0 40 40" xml:space="preserve">
<g id="Livello_1_1_">
</g>
<g id="Weather_condition">
	<g>
		<g>
			<g>
				<path fill="#FFFFFF" d="M20,10.2L20,10.2c0.5,0,1-0.5,1-1V6c0-0.5-0.5-1-1-1s-1,0.4-1,1v3.3C19,9.8,19.4,10.2,20,10.2z"/>
			</g>
			<g>
				<path fill="#FFFFFF" d="M20,29.8L20,29.8c-0.5,0-1,0.5-1,1V34c0,0.5,0.5,1,1,1l0,0c0.5,0,1-0.5,1-1v-3.3
					C21,30.2,20.6,29.8,20,29.8z"/>
			</g>
			<g>
				<path fill="#FFFFFF" d="M27.6,13.4c0.3,0,0.5-0.1,0.7-0.3l2.3-2.3c0.4-0.4,0.4-1,0-1.4s-1-0.4-1.4,0l-2.3,2.3
					c-0.4,0.4-0.4,1,0,1.4C27.1,13.3,27.3,13.4,27.6,13.4z"/>
			</g>
			<g>
				<path fill="#FFFFFF" d="M11.7,26.9l-2.3,2.3c-0.4,0.4-0.4,1,0,1.4c0.2,0.2,0.5,0.3,0.7,0.3c0.3,0,0.5-0.1,0.7-0.3l2.3-2.3
					c0.4-0.4,0.4-1,0-1.4S12.1,26.5,11.7,26.9z"/>
			</g>
			<g>
				<path fill="#FFFFFF" d="M34,19h-3.3l0,0c-0.5,0-1,0.5-1,1s0.5,1,1,1H34l0,0c0.5,0,1-0.5,1-1S34.5,19,34,19z"/>
			</g>
			<g>
				<path fill="#FFFFFF" d="M9.3,21c0.5,0,1-0.5,1-1s-0.5-1-1-1H6l0,0c-0.5,0-1,0.5-1,1s0.5,1,1,1H9.3C9.2,21,9.3,21,9.3,21z"/>
			</g>
			<g>
				<path fill="#FFFFFF" d="M28.3,26.9c-0.4-0.4-1-0.4-1.4,0s-0.4,1,0,1.4l2.3,2.3c0.2,0.2,0.5,0.3,0.7,0.3c0.3,0,0.5-0.1,0.7-0.3
					c0.4-0.4,0.4-1,0-1.4L28.3,26.9z"/>
			</g>
			<g>
				<path fill="#FFFFFF" d="M11.6,13.1c0.2,0.2,0.5,0.3,0.7,0.3c0.3,0,0.5-0.1,0.7-0.3c0.4-0.4,0.4-1,0-1.4l-2.3-2.3
					c-0.4-0.4-1-0.4-1.4,0s-0.4,1,0,1.4L11.6,13.1z"/>
			</g>
		</g>
		<g>
			<path fill="#FFFFFF" d="M19.9,26.6c-3.6,0-6.5-2.9-6.5-6.5s2.9-6.5,6.5-6.5s6.5,2.9,6.5,6.5S23.5,26.6,19.9,26.6z M19.9,15.7
				c-2.5,0-4.5,2-4.5,4.5s2,4.5,4.5,4.5s4.5-2,4.5-4.5S22.4,15.7,19.9,15.7z"/>
		</g>
	</g>
</g>
</svg>
