<?xml version="1.0" encoding="utf-8"?>
<!-- Generator: Adobe Illustrator 18.1.1, SVG Export Plug-In . SVG Version: 6.00 Build 0)  -->
<!DOCTYPE svg PUBLIC "-//W3C//DTD SVG 1.1//EN" "http://www.w3.org/Graphics/SVG/1.1/DTD/svg11.dtd">
<svg version="1.1" id="Livello_1" xmlns="http://www.w3.org/2000/svg" xmlns:xlink="http://www.w3.org/1999/xlink" x="0px" y="0px"
	 viewBox="0 0 210 210" enable-background="new 0 0 210 210" xml:space="preserve">
<g>
	<path fill="#878787" d="M114.1,116.7c-0.7,0.3-1.4,0.5-2.2,0.6c0.8-0.5,1.4-1.3,1.7-2.2c-0.7,0.5-1.5,0.8-2.4,1
		c-0.7-0.8-1.7-1.3-2.7-1.3c-2.1,0-3.8,1.8-3.8,4c0,0.3,0,0.6,0.1,0.9c-3.1-0.2-5.9-1.8-7.7-4.2c-0.3,0.6-0.5,1.3-0.5,2
		c0,1.4,0.7,2.6,1.7,3.4c-0.6,0-1.2-0.2-1.7-0.5c0,0,0,0,0,0.1c0,2,1.3,3.6,3,4c-0.3,0.1-0.6,0.1-1,0.1c-0.2,0-0.5,0-0.7-0.1
		c0.5,1.6,1.9,2.8,3.5,2.8c-1.3,1.1-2.9,1.7-4.7,1.7c-0.3,0-0.6,0-0.9-0.1c1.7,1.2,3.6,1.8,5.8,1.8c6.9,0,10.7-6.2,10.7-11.5
		c0-0.2,0-0.3,0-0.5C113,118.2,113.6,117.5,114.1,116.7z"/>
	<path fill="#878787" d="M106.3,84.7v-1.8c0-0.7,0.4-0.8,0.7-0.8c0.3,0,1.9,0,1.9,0v-2.9l-2.6,0c-2.9,0-3.6,2.2-3.6,3.6v1.9h-1.7v3
		h1.7c0,3.9,0,8.5,0,8.5h3.5c0,0,0-4.7,0-8.5h2.4l0.3-3H106.3z"/>
</g>
<path d="M25.5,105c0-29.3,16.4-56.4,42-70.1l-7.1,20.5l4.7,1.6L75,28.7l-29-7.8l-1.3,4.8L64.2,31c-26.7,14.8-43.7,43.3-43.7,74
	c0,17.3,5.2,33.9,15,48.1c9.6,13.8,22.9,24.4,38.5,30.6l1.8-4.7C45.3,166.9,25.5,137.9,25.5,105z"/>
<path d="M189.5,105c0-17.3-5.2-33.9-15-48.1c-9.6-13.8-22.9-24.4-38.5-30.6l-1.8,4.7c30.6,12.1,50.4,41.1,50.4,74
	c0,29.3-16.4,56.4-42,70.1l7.1-20.5l-4.7-1.6l-9.9,28.4l29,7.8l1.3-4.8l-19.6-5.2C172.5,164.3,189.5,135.8,189.5,105z"/>
</svg>
