<?xml version="1.0" encoding="utf-8"?>
<!-- Generator: Adobe Illustrator 18.1.1, SVG Export Plug-In . SVG Version: 6.00 Build 0)  -->
<!DOCTYPE svg PUBLIC "-//W3C//DTD SVG 1.1//EN" "http://www.w3.org/Graphics/SVG/1.1/DTD/svg11.dtd">
<svg version="1.1" id="Livello_1" xmlns="http://www.w3.org/2000/svg" xmlns:xlink="http://www.w3.org/1999/xlink" x="0px" y="0px"
	 viewBox="0 0 210 210" enable-background="new 0 0 210 210" xml:space="preserve">
<path fill="#4696FF" d="M25.5,105c0-29.3,16.4-56.4,42-70.1l-7.1,20.5l4.7,1.6L75,28.7l-29-7.8l-1.3,4.8L64.2,31
	c-26.7,14.8-43.7,43.3-43.7,74c0,17.3,5.2,33.9,15,48.1c9.6,13.8,22.9,24.4,38.5,30.6l1.8-4.7C45.3,166.9,25.5,137.9,25.5,105z"/>
<path fill="#4696FF" d="M189.5,105c0-17.3-5.2-33.9-15-48.1c-9.6-13.8-22.9-24.4-38.5-30.6l-1.8,4.7c30.6,12.1,50.4,41.1,50.4,74
	c0,29.3-16.4,56.4-42,70.1l7.1-20.5l-4.7-1.6l-9.9,28.4l29,7.8l1.3-4.8l-19.6-5.2C172.5,164.3,189.5,135.8,189.5,105z"/>
<g>
	<path fill="#4696FF" d="M83.6,106.1h7.3v2.3h-1.7c-0.7,3.5-3.2,5.8-7.5,5.8c-5,0-7.9-3.9-7.9-8.1s3.1-8.1,7.9-8.1
		c3.6,0,6.3,2.3,6.6,5h-2.6c-0.3-1.5-1.9-2.7-4-2.7c-3.3,0-5.3,2.8-5.3,5.8c0,3,1.8,5.8,5.7,5.8c2.6,0,4.2-1.7,4.5-3.6h-2.9V106.1z"
		/>
	<path fill="#4696FF" d="M92.7,108.7c0-2.9,2.1-5.4,5.4-5.4c3.3,0,5.4,2.5,5.4,5.4c0,2.9-2.1,5.4-5.4,5.4
		C94.8,114.1,92.7,111.6,92.7,108.7z M101.1,108.7c0-1.8-1.2-3.3-3-3.3c-1.8,0-3,1.5-3,3.3c0,1.8,1.2,3.3,3,3.3
		C99.9,111.9,101.1,110.4,101.1,108.7z"/>
	<path fill="#4696FF" d="M121.7,103.5v10.3h-2.4v-1.4c-0.6,1.1-1.8,1.7-3.3,1.7c-1.5,0-2.5-0.5-3.1-1.4c-0.5-0.8-0.7-1.6-0.7-3v-6.1
		h2.4v5.3c0,1.8,0.5,3.1,2.2,3.1c1.7,0,2.5-1.3,2.5-3.1v-5.3H121.7z"/>
	<path fill="#4696FF" d="M127.7,104.9c0.6-1,2-1.7,3.2-1.7c3.1,0,5.3,2.5,5.3,5.4c0,2.9-2.1,5.4-5.3,5.4c-1.2,0-2.5-0.6-3.2-1.7v6.5
		h-2.4v-15.4h2.4V104.9z M127.7,108.7c0,1.8,1.2,3.3,3,3.3c1.8,0,3-1.5,3-3.3c0-1.8-1.2-3.3-3-3.3
		C128.9,105.4,127.7,106.9,127.7,108.7z"/>
</g>
</svg>
