<?xml version="1.0" encoding="utf-8"?>
<!-- Generator: Adobe Illustrator 18.1.1, SVG Export Plug-In . SVG Version: 6.00 Build 0)  -->
<!DOCTYPE svg PUBLIC "-//W3C//DTD SVG 1.1//EN" "http://www.w3.org/Graphics/SVG/1.1/DTD/svg11.dtd">
<svg version="1.1" id="Livello_1" xmlns="http://www.w3.org/2000/svg" xmlns:xlink="http://www.w3.org/1999/xlink" x="0px" y="0px"
	 viewBox="0 0 210 210" enable-background="new 0 0 210 210" xml:space="preserve">
<g>
	<path d="M78.4,108.8c0,2,1.3,3.1,3,3.1c1.4,0,2.5-0.9,2.5-2.3c0-1.6-1.4-2.1-2.4-2.4c-2.8-1-5.1-1.8-5.1-4.9c0-2.6,2.2-4.2,4.8-4.2
		c2.8,0,4.9,2,4.9,4.8h-2.5c0-1.5-0.9-2.6-2.3-2.6c-1.3,0-2.3,0.7-2.3,2c0,1.3,1.1,1.8,2.2,2.3c2.4,0.9,5.3,1.9,5.3,4.8
		c0,3.2-2.4,4.8-5.3,4.8c-2.8,0-5.3-2-5.3-5.4H78.4z"/>
	<path d="M89.5,98.4h2.4v6.6c0.6-1.1,1.8-1.7,3.3-1.7c1.5,0,2.5,0.5,3.1,1.4c0.5,0.8,0.7,1.6,0.7,3v6.1h-2.4v-5.3
		c0-1.8-0.5-3.1-2.2-3.1c-1.7,0-2.5,1.3-2.5,3.1v5.3h-2.4V98.4z"/>
	<path d="M112.5,103.5v10.3h-2.4v-1.4c-0.6,1-2,1.7-3.2,1.7c-3.1,0-5.3-2.5-5.3-5.4c0-2.9,2.1-5.4,5.3-5.4c1.2,0,2.5,0.6,3.2,1.7
		v-1.4H112.5z M110.1,108.7c0-1.8-1.2-3.3-3-3.3c-1.8,0-3,1.5-3,3.3c0,1.8,1.2,3.3,3,3.3C109,111.9,110.1,110.4,110.1,108.7z"/>
	<path d="M122.7,105.8c-0.4-0.1-0.6-0.1-0.9-0.1c-2,0-3.2,1.2-3.2,3.7v4.4h-2.4v-10.3h2.4v1.7c0.5-0.9,1.8-1.8,3.2-1.8
		c0.4,0,0.7,0,0.9,0.2V105.8z"/>
	<path d="M126.6,109.4c0.1,1.5,0.7,2.7,2.8,2.7c1.4,0,1.9-0.6,2.2-1.3h2.4c-0.3,1.8-2,3.3-4.6,3.3c-3.5,0-5.1-2.4-5.1-5.4
		c0-3.1,1.8-5.4,5.1-5.4c2.7,0,4.8,2,4.8,4.6c0,0.4,0,0.8-0.1,1.5H126.6z M126.6,107.6h5.1c0-1.6-1-2.5-2.5-2.5
		C127.7,105.1,126.6,105.9,126.6,107.6z"/>
</g>
<path d="M25.5,105c0-29.3,16.4-56.4,42-70.1l-7.1,20.5l4.7,1.6L75,28.7l-29-7.8l-1.3,4.8L64.2,31c-26.7,14.8-43.7,43.3-43.7,74
	c0,17.3,5.2,33.9,15,48.1c9.6,13.8,22.9,24.4,38.5,30.6l1.8-4.7C45.3,166.9,25.5,137.9,25.5,105z"/>
<path d="M189.5,105c0-17.3-5.2-33.9-15-48.1c-9.6-13.8-22.9-24.4-38.5-30.6l-1.8,4.7c30.6,12.1,50.4,41.1,50.4,74
	c0,29.3-16.4,56.4-42,70.1l7.1-20.5l-4.7-1.6l-9.9,28.4l29,7.8l1.3-4.8l-19.6-5.2C172.5,164.3,189.5,135.8,189.5,105z"/>
</svg>
