<?xml version="1.0" encoding="utf-8"?>
<!-- Generator: Adobe Illustrator 18.1.1, SVG Export Plug-In . SVG Version: 6.00 Build 0)  -->
<!DOCTYPE svg PUBLIC "-//W3C//DTD SVG 1.1//EN" "http://www.w3.org/Graphics/SVG/1.1/DTD/svg11.dtd">
<svg version="1.1" id="Livello_1" xmlns="http://www.w3.org/2000/svg" xmlns:xlink="http://www.w3.org/1999/xlink" x="0px" y="0px"
	 viewBox="0 0 210 210" enable-background="new 0 0 210 210" xml:space="preserve">
<path fill="#4696FF" d="M25.5,105c0-29.3,16.4-56.4,42-70.1l-7.1,20.5l4.7,1.6L75,28.7l-29-7.8l-1.3,4.8L64.2,31
	c-26.7,14.8-43.7,43.3-43.7,74c0,17.3,5.2,33.9,15,48.1c9.6,13.8,22.9,24.4,38.5,30.6l1.8-4.7C45.3,166.9,25.5,137.9,25.5,105z"/>
<path fill="#4696FF" d="M189.5,105c0-17.3-5.2-33.9-15-48.1c-9.6-13.8-22.9-24.4-38.5-30.6l-1.8,4.7c30.6,12.1,50.4,41.1,50.4,74
	c0,29.3-16.4,56.4-42,70.1l7.1-20.5l-4.7-1.6l-9.9,28.4l29,7.8l1.3-4.8l-19.6-5.2C172.5,164.3,189.5,135.8,189.5,105z"/>
<g>
	<path fill="#4593FF" d="M51.7,98.4h5.5c3.3,0,5.4,2.5,5.4,5.4c0,2.2-1.2,4.2-3.3,5l3.1,5h-2.9l-2.8-4.6h-2.5v4.6h-2.5V98.4z
		 M60.2,103.8c0-1.7-1.1-3.1-2.9-3.1h-3v6.2h3C59,106.9,60.2,105.5,60.2,103.8z"/>
	<path fill="#4593FF" d="M67,109.4c0.1,1.5,0.7,2.7,2.8,2.7c1.4,0,1.9-0.6,2.2-1.3h2.4c-0.3,1.8-2,3.3-4.6,3.3
		c-3.5,0-5.1-2.4-5.1-5.4c0-3.1,1.8-5.4,5.1-5.4c2.7,0,4.8,2,4.8,4.6c0,0.4,0,0.8-0.1,1.5H67z M67,107.6h5.1c0-1.6-1-2.5-2.5-2.5
		C68.1,105.1,67,105.9,67,107.6z"/>
	<path fill="#4593FF" d="M87.3,103.5v10.3h-2.4v-1.4c-0.6,1-2,1.7-3.2,1.7c-3.1,0-5.3-2.5-5.3-5.4c0-2.9,2.1-5.4,5.3-5.4
		c1.2,0,2.5,0.6,3.2,1.7v-1.4H87.3z M84.9,108.7c0-1.8-1.2-3.3-3-3.3c-1.8,0-3,1.5-3,3.3c0,1.8,1.2,3.3,3,3.3
		C83.7,111.9,84.9,110.4,84.9,108.7z"/>
	<path fill="#4593FF" d="M98.4,112.4c-0.6,1-2,1.7-3.2,1.7c-3.1,0-5.3-2.5-5.3-5.4c0-2.9,2.1-5.4,5.3-5.4c1.2,0,2.5,0.6,3.2,1.7
		v-6.5h2.4v15.4h-2.4V112.4z M98.4,108.7c0-1.8-1.2-3.3-3-3.3c-1.8,0-3,1.5-3,3.3c0,1.8,1.2,3.3,3,3.3
		C97.2,111.9,98.4,110.4,98.4,108.7z"/>
	<path fill="#4593FF" d="M122.9,113.8V108c0-1.6-0.6-2.7-1.9-2.7c-1.2,0-2.2,0.7-2.2,3.2v5.2h-2.4V108c0-1.6-0.5-2.6-1.9-2.6
		c-1.2,0-2.2,0.7-2.2,3.2v5.2h-2.4v-10.3h2.4v1.4c0.4-0.9,1.5-1.7,2.9-1.7c1.9,0,2.8,0.8,3.2,1.8c0.5-1,1.7-1.8,3.1-1.8
		c3.1,0,3.7,2.1,3.7,4v6.5H122.9z"/>
	<path fill="#4593FF" d="M127.8,108.7c0-2.9,2.1-5.4,5.4-5.4c3.3,0,5.4,2.5,5.4,5.4c0,2.9-2.1,5.4-5.4,5.4
		C129.9,114.1,127.8,111.6,127.8,108.7z M136.2,108.7c0-1.8-1.2-3.3-3-3.3c-1.8,0-3,1.5-3,3.3c0,1.8,1.2,3.3,3,3.3
		C135,111.9,136.2,110.4,136.2,108.7z"/>
	<path fill="#4593FF" d="M147.8,105.8c-0.4-0.1-0.6-0.1-0.9-0.1c-2,0-3.2,1.2-3.2,3.7v4.4h-2.4v-10.3h2.4v1.7
		c0.5-0.9,1.8-1.8,3.2-1.8c0.4,0,0.7,0,0.9,0.2V105.8z"/>
	<path fill="#4593FF" d="M151.5,109.4c0.1,1.5,0.7,2.7,2.8,2.7c1.4,0,1.9-0.6,2.2-1.3h2.4c-0.3,1.8-2,3.3-4.6,3.3
		c-3.5,0-5.1-2.4-5.1-5.4c0-3.1,1.8-5.4,5.1-5.4c2.7,0,4.8,2,4.8,4.6c0,0.4,0,0.8-0.1,1.5H151.5z M151.5,107.6h5.1
		c0-1.6-1-2.5-2.5-2.5C152.6,105.1,151.5,105.9,151.5,107.6z"/>
</g>
</svg>
