<?xml version="1.0" encoding="UTF-8" standalone="no"?>
<!-- Generator: Adobe Illustrator 18.0.0, SVG Export Plug-In . SVG Version: 6.00 Build 0)  -->

<svg
   xmlns:dc="http://purl.org/dc/elements/1.1/"
   xmlns:cc="http://creativecommons.org/ns#"
   xmlns:rdf="http://www.w3.org/1999/02/22-rdf-syntax-ns#"
   xmlns:svg="http://www.w3.org/2000/svg"
   xmlns="http://www.w3.org/2000/svg"
   xmlns:sodipodi="http://sodipodi.sourceforge.net/DTD/sodipodi-0.dtd"
   xmlns:inkscape="http://www.inkscape.org/namespaces/inkscape"
   version="1.1"
   id="Livello_1"
   x="0px"
   y="0px"
   viewBox="0 0 612 126.7"
   enable-background="new 0 0 612 792"
   xml:space="preserve"
   inkscape:version="0.48.4 r9939"
   width="100%"
   height="100%"
   sodipodi:docname="logo_black.svg"><metadata
     id="metadata5773"><rdf:RDF><cc:Work
         rdf:about=""><dc:format>image/svg+xml</dc:format><dc:type
           rdf:resource="http://purl.org/dc/dcmitype/StillImage" /></cc:Work></rdf:RDF></metadata><defs
     id="defs5771" /><sodipodi:namedview
     pagecolor="#ffffff"
     bordercolor="#666666"
     borderopacity="1"
     objecttolerance="10"
     gridtolerance="10"
     guidetolerance="10"
     inkscape:pageopacity="0"
     inkscape:pageshadow="2"
     inkscape:window-width="640"
     inkscape:window-height="480"
     id="namedview5769"
     showgrid="false"
     fit-margin-top="0"
     fit-margin-left="0"
     fit-margin-right="0"
     fit-margin-bottom="0"
     inkscape:zoom="0.2979798"
     inkscape:cx="306"
     inkscape:cy="63.4"
     inkscape:window-x="35"
     inkscape:window-y="24"
     inkscape:window-maximized="0"
     inkscape:current-layer="Livello_1" /><g
     id="g5709"
     transform="translate(0,-332.7)"><path
       d="m 304,387.3 h 2.9 v 16.8 H 304 v -16.8 z"
       id="path5711"
       inkscape:connector-curvature="0" /><path
       d="m 323.9,395.8 c 0,-4.5 3.3,-8.9 8.7,-8.9 5.4,0 8.7,4.3 8.7,8.9 0,4.5 -3.3,8.9 -8.7,8.9 -5.4,0 -8.7,-4.4 -8.7,-8.9 z m 14.7,0 c 0,-3.3 -2.2,-6.3 -5.8,-6.3 -3.6,0 -5.8,3.1 -5.8,6.3 0,3.3 2.2,6.3 5.8,6.3 3.4,0.1 5.8,-3 5.8,-6.3 z"
       id="path5713"
       inkscape:connector-curvature="0" /><path
       d="m 276.8,389.8 h -4.2 v -2.5 h 11.2 v 2.5 h -4.2 v 14.5 H 277 v -14.5 h -0.2 z"
       id="path5715"
       inkscape:connector-curvature="0" /><path
       d="M 4.2,389.8 H 0 v -2.5 h 11.2 v 2.5 H 6.9 v 14.5 H 4.2 v -14.5 z"
       id="path5717"
       inkscape:connector-curvature="0" /><path
       d="M 254.8,404.1 254,402 h -6.3 l -0.7,2.2 h -2.9 l 5.8,-16.8 h 2 l 5.8,16.8 h -2.9 z M 251,392 l -2.4,7.6 h 4.7 L 251,392 z"
       id="path5719"
       inkscape:connector-curvature="0" /><path
       d="m 63.9,404.1 -0.7,-2.2 h -6.3 l -0.7,2.2 h -2.9 l 5.8,-16.8 h 2 l 5.8,16.8 h -3 z m -3.8,-12.1 -2.4,7.6 h 4.7 L 60.1,392 z"
       id="path5721"
       inkscape:connector-curvature="0" /><path
       d="m 190.5,387.3 h 6 c 3.6,0 6,2.7 6,6 0,2.4 -1.3,4.5 -3.6,5.4 l 3.4,5.4 h -3.1 l -3.1,-5.1 h -2.7 v 5.1 h -2.7 v -16.8 h -0.2 z m 9.2,6 c 0,-1.8 -1.3,-3.4 -3.3,-3.4 h -3.3 v 6.9 h 3.3 c 2,-0.1 3.3,-1.7 3.3,-3.5 z"
       id="path5723"
       inkscape:connector-curvature="0" /><path
       d="m 26.8,387.3 h 6 c 3.6,0 6,2.7 6,6 0,2.4 -1.3,4.5 -3.6,5.4 l 3.4,5.4 H 35.5 L 32.4,399 h -2.7 v 5.1 H 27 v -16.8 h -0.2 z m 9.2,6 c 0,-1.8 -1.3,-3.4 -3.3,-3.4 h -3.3 v 6.9 h 3.3 c 2.1,-0.1 3.3,-1.7 3.3,-3.5 z"
       id="path5725"
       inkscape:connector-curvature="0" /><path
       d="m 90.9,399.4 v -12 h 2.7 v 16.8 h -3.1 l -6.7,-12 v 12 h -2.7 v -16.8 h 3.1 l 6.7,12 z"
       id="path5727"
       inkscape:connector-curvature="0" /><path
       d="m 363.4,399.4 v -12 h 2.7 v 16.8 H 363 l -6.7,-12 v 12 h -2.7 v -16.8 h 3.1 l 6.7,12 z"
       id="path5729"
       inkscape:connector-curvature="0" /><path
       d="m 111.5,398.7 c 0,2.2 1.4,3.4 3.3,3.4 1.6,0 2.7,-0.9 2.7,-2.5 0,-1.6 -1.4,-2.4 -2.7,-2.7 -3.1,-1.1 -5.6,-2 -5.6,-5.4 0,-2.7 2.4,-4.7 5.3,-4.7 3.1,0 5.4,2.2 5.4,5.3 h -2.7 c 0,-1.6 -0.9,-2.7 -2.5,-2.7 -1.4,0 -2.5,0.7 -2.5,2.2 0,1.5 1.3,2 2.5,2.5 2.7,0.9 5.8,2 5.8,5.3 0,3.4 -2.7,5.3 -5.8,5.3 -3.1,0 -5.8,-2.2 -5.8,-6 h 2.7 v 0 z"
       id="path5731"
       inkscape:connector-curvature="0" /><path
       d="m 139.8,389.8 v 5.4 h 6.9 v 2.5 h -6.9 v 6.5 h -2.7 v -16.8 h 9.6 v 2.5 h -6.9 v -0.1 z"
       id="path5733"
       inkscape:connector-curvature="0" /><path
       d="m 160.4,395.8 c 0,-4.5 3.3,-8.9 8.7,-8.9 5.4,0 8.7,4.3 8.7,8.9 0,4.5 -3.3,8.9 -8.7,8.9 -5.4,0 -8.7,-4.4 -8.7,-8.9 z m 14.5,0 c 0,-3.3 -2.2,-6.3 -5.8,-6.3 -3.6,0 -5.8,3.1 -5.8,6.3 0,3.3 2.2,6.3 5.8,6.3 3.6,0.1 5.8,-3 5.8,-6.3 z"
       id="path5735"
       inkscape:connector-curvature="0" /><path
       d="M 231.8,404.1 H 229 v -10.5 l -4.2,10.5 h -2.2 l -4.2,-10.5 v 10.5 h -2.7 v -16.8 h 2.7 l 5.4,12.5 5.4,-12.5 h 2.7 v 16.8 h -0.1 z"
       id="path5737"
       inkscape:connector-curvature="0" /><path
       d="m 140.5,335.2 h -4.2 v -2.5 h 11.2 v 2.5 h -4.2 v 14.5 h -2.7 v -14.5 h -0.1 z"
       id="path5739"
       inkscape:connector-curvature="0" /><path
       d="m 111.4,340.1 -0.7,2 8.1,2.7 c -14.3,6.5 -25.3,18.6 -30.2,33.7 l 2.4,0.7 c 4.7,-14.5 15.2,-26.1 29.2,-32.2 l -3.6,8.3 2,0.9 5.1,-12 -12.3,-4.1 z"
       id="path5741"
       inkscape:connector-curvature="0" /><path
       d="m 93.1,418.3 8.3,3.4 0.9,-2 -12,-5.1 -4.1,12.4 2,0.7 2.7,-8.1 c 6.3,13.6 17.7,24.3 31.9,29.3 l 0.9,-2.4 C 110.1,441.6 99,431.3 93.1,418.3 z"
       id="path5743"
       inkscape:connector-curvature="0" /><path
       d="m 194.8,415.2 -2.4,-0.9 c -5.1,13.8 -15.4,25 -28.8,30.8 l 3.6,-8.1 -2,-0.9 -5.3,12 12.1,4.3 0.7,-2 -8.1,-2.9 c 14.1,-6.4 25,-18 30.2,-32.3 z"
       id="path5745"
       inkscape:connector-curvature="0" /><path
       d="m 196.5,365.6 -2.9,8 c -6.2,-14.5 -18.1,-25.5 -33.1,-30.8 l -0.9,2.5 c 14.3,5.1 25.7,15.8 31.7,29.7 l -8.1,-3.6 -0.9,2 11.8,5.3 4.5,-12.1 -2.1,-1 z"
       id="path5747"
       inkscape:connector-curvature="0" /><path
       d="m 145.8,459.4 -0.7,-2.2 h -6.3 l -0.7,2.2 h -2.9 l 5.8,-16.8 h 2 l 5.8,16.8 h -3 z m -3.8,-12.3 -2.4,7.6 h 4.7 l -2.3,-7.6 z"
       id="path5749"
       inkscape:connector-curvature="0" /><g
       id="g5751"><path
         d="m 423,404.3 h -2.9 v -10.7 l -4.3,10.7 h -2.2 l -4.3,-10.7 v 10.7 h -2.9 v -17.2 h 2.7 l 5.4,12.9 5.4,-12.9 h 2.7 v 17.2 h 0.4 z"
         id="path5753"
         inkscape:connector-curvature="0" /><path
         d="m 446,404.3 -0.7,-2.2 h -6.5 l -0.7,2.2 h -2.9 l 6,-17.2 h 2 l 6,17.2 H 446 z m -3.8,-12.5 -2.4,7.8 h 4.7 l -2.3,-7.8 z"
         id="path5755"
         inkscape:connector-curvature="0" /><path
         d="m 463.2,387.1 h 6.2 c 3.6,0 6,2.7 6,6 0,2.5 -1.4,4.7 -3.6,5.6 l 3.4,5.6 h -3.3 l -3.1,-5.1 h -2.9 v 5.1 H 463 v -17.2 h 0.2 z m 9.4,6.2 c 0,-1.8 -1.3,-3.4 -3.3,-3.4 H 466 v 6.9 h 3.3 c 2,-0.1 3.3,-1.7 3.3,-3.5 z"
         id="path5757"
         inkscape:connector-curvature="0" /><path
         d="m 500.6,404.3 -0.7,-2.2 h -6.5 l -0.7,2.2 h -2.9 l 6,-17.2 h 2 l 6,17.2 h -3.2 z m -3.9,-12.5 -2.4,7.8 h 4.7 l -2.3,-7.8 z"
         id="path5759"
         inkscape:connector-curvature="0" /><path
         d="m 522.4,389.7 h -4.2 v -2.5 h 11.4 v 2.5 h -4.3 v 14.7 h -2.9 v -14.7 z"
         id="path5761"
         inkscape:connector-curvature="0" /><path
         d="m 554.6,397.1 h -7.1 v 7.2 h -2.9 v -17.2 h 2.9 v 7.4 h 7.1 v -7.4 h 2.9 v 17.2 h -2.9 v -7.2 z"
         id="path5763"
         inkscape:connector-curvature="0" /><path
         d="m 569.4,395.8 c 0,-4.7 3.4,-9.1 8.9,-9.1 5.5,0 8.9,4.3 8.9,9.1 0,4.7 -3.4,9.1 -8.9,9.1 -5.5,0 -8.9,-4.4 -8.9,-9.1 z m 14.9,0 c 0,-3.3 -2.2,-6.5 -6,-6.5 -3.6,0 -6,3.1 -6,6.5 0,3.3 2.2,6.5 6,6.5 3.8,0 6,-3.2 6,-6.5 z"
         id="path5765"
         inkscape:connector-curvature="0" /><path
         d="m 609.1,399.4 v -12.3 h 2.9 v 17.2 h -3.1 L 602,392.2 v 12.1 h -2.7 v -17.2 h 3.1 l 6.7,12.3 z"
         id="path5767"
         inkscape:connector-curvature="0" /></g></g></svg>