<?xml version="1.0" encoding="utf-8"?>
<!-- Generator: Adobe Illustrator 18.0.0, SVG Export Plug-In . SVG Version: 6.00 Build 0)  -->
<!DOCTYPE svg PUBLIC "-//W3C//DTD SVG 1.1//EN" "http://www.w3.org/Graphics/SVG/1.1/DTD/svg11.dtd">
<svg version="1.1" xmlns="http://www.w3.org/2000/svg" xmlns:xlink="http://www.w3.org/1999/xlink" x="0px" y="0px"
	 viewBox="0 0 1440 600" enable-background="new 0 0 1440 600" xml:space="preserve">
<g id="Livello_2">
	<g>
		<defs>
			<rect id="SVGID_1_" y="0" width="1440" height="600"/>
		</defs>
		<clipPath id="SVGID_2_">
			<use xlink:href="#SVGID_1_"  overflow="visible"/>
		</clipPath>
		<g clip-path="url(#SVGID_2_)">
			<path fill="#4696FF" d="M145.1,384.9l-3.1,5.5l23.2,12.9c-41.4,10-85,2.1-120.4-21.9c-33-22.4-55.5-56.3-63.3-95.3l-6.9,1.4
				c8.2,40.9,31.7,76.3,66.2,99.8c26.5,18,57.5,27.4,88.9,27.4c12.1,0,24.2-1.4,36.2-4.2l-13.9,21.1l5.3,3.5l20.8-31.6L145.1,384.9z
				"/>
			<g>
				<path fill="#4696FF" d="M838.1,182.4c-19.6-34-47.8-62.6-81.4-82.9l-3.6,6c32.6,19.6,59.9,47.4,78.9,80.4
					c19.6,34,30,72.8,30,112.2c0,66.4-29.1,129-80,171.9l4.5,5.4c52.4-44.2,82.5-108.8,82.5-177.2
					C869,257.4,858.3,217.4,838.1,182.4z"/>
				<path fill="#4696FF" d="M59.2-45.6c56.4,13.3,108.9,37.5,156,71.9c53,38.7,95.4,87.4,126,144.7l-24.7-8.5l-2.1,6l35.8,12.3
					l9.7-36.6l-6.1-1.6l-6.6,24.8C316.1,109.3,273.1,60,219.3,20.7c-47.9-35-101.2-59.6-158.5-73.1c-55.3-13-112-15.2-168.4-6.4
					s-109.8,28-158.5,57.2C-316.6,28.6-360,68.2-395,116.1l5.7,4.1c34.5-47.1,77.1-86.1,126.8-115.9c48-28.7,100.5-47.7,156-56.3
					C-51-60.5,4.8-58.4,59.2-45.6z"/>
				<path fill="#4696FF" d="M395.9,102.7l36.2,10.9l8.2-36.9l-6.2-1.4l-5.6,25c-71-120.6-196-200.6-335.9-214.4l-0.7,7
					C229.8-93.5,353-14.7,422.8,104.2l-25.1-7.5L395.9,102.7z"/>
				<path fill="#4696FF" d="M349.6-110.9c68.1,37.6,124.6,92.6,163.7,159.2l-25.1-7.5l-1.8,6l36.2,10.9l8.2-36.9l-6.2-1.4l-5.5,25
					C479.4-23.1,422-78.8,353-117c-70.8-39.1-150.7-58-231-54.6l0.3,7C201.3-167.9,279.9-149.4,349.6-110.9z"/>
				<path fill="#4696FF" d="M943.9,330c0-82.1-22.8-162.3-65.9-231.7C836,30.8,776.5-24.2,706-60.6l-3.2,6.2
					C772.2-18.5,830.7,35.6,872,102c42.5,68.3,64.9,147.2,64.9,228c0,59.8-12,117.7-35.6,172c-22,50.7-53.1,96.2-92.5,135.2
					l1.1-26.1l-6.3-0.3l-1.6,37.8l37.8-1.1l-0.2-6.3L814,642c39.9-39.6,71.4-85.7,93.7-137.1C931.7,449.6,943.9,390.8,943.9,330z"/>
				<path fill="#4696FF" d="M957.4,84.3l-24.9-8.1l-2,6l36,11.7l9.1-36.7l-6.1-1.5l-6.2,24.9c-20.4-36.8-45.9-70.4-76-100
					C855.8-50.6,819.8-76.7,780.5-97l-3.2,6.2c38.7,20,74,45.7,105.1,76.3C912.1,14.8,937.3,48,957.4,84.3z"/>
				<path fill="#4696FF" d="M1121.9,57.5c-36.1,41.4-65.6,87.8-87.9,137.8l-8.4-24.4l-6,2.1l12.3,35.8l34.8-14.9l-2.5-5.8l-24,10.3
					c22-49.5,51.2-95.4,86.9-136.3c36.2-41.6,78.4-77.4,125.4-106.5l-3.7-6C1201.3-20.9,1158.6,15.4,1121.9,57.5z"/>
				<path fill="#4696FF" d="M1061.5,61.9l-2.4-5.8L1035,66.2c27.3-60.2,68.8-114,120.4-156l-4.4-5.4C1098.6-52.6,1056.5,2,1028.7,63
					l-8.2-24.3l-6,2l12.1,35.9L1061.5,61.9z"/>
				<path fill="#4696FF" d="M97.5,42.5L80.7,62.9l4.9,4l24-29.2L78.7,15.8L75.1,21l20.8,14.7c-66.2,9.3-125.4,46-163.1,101.4
					c-29.7,43.8-43.7,94.8-40.5,147.4c3.1,51,23,100.5,56,139.2l5.3-4.5c-32-37.6-51.3-85.5-54.4-135.1
					C-103.8,233-90.2,183.5-61.4,141C-24.7,87,33,51.4,97.5,42.5z"/>
				<path fill="#4696FF" d="M280.4,297.6c17.6-64.7-7.8-133.5-63.4-171.3c-34.7-23.6-76.5-32.2-117.8-24.4
					c-41.2,7.9-76.9,31.3-100.5,66c-20.5,30.1-29.9,66.6-26.5,102.8l7-0.7C-24,235.7-15,200.8,4.5,172c22.5-33.2,56.6-55.6,96-63.1
					c39.4-7.5,79.3,0.7,112.5,23.3c53,36,77.4,101.8,60.5,163.6L280.4,297.6z"/>
				<path fill="#4696FF" d="M1210.6,204.9l-5.4,3.3l19.8,32.2l30.7-22.1l-3.7-5.1l-21.2,15.3c30.5-151.1,122-229.4,269.1-312.9
					l-3.5-6.1c-86.8,49.2-143.9,91.8-185.1,138.1c-45,50.6-72.9,107.6-87.3,179.1L1210.6,204.9z"/>
				<path fill="#4696FF" d="M1317.5,196.8l-11.3-23.1l-5.7,2.8l16.7,34l32.7-19.1l-3.2-5.4l-22.6,13.2
					C1368.7,51.5,1467.2-17.8,1621.5-87l-2.9-6.4c-91.1,40.8-151.9,77.9-197.3,120C1371.8,72.8,1338.7,126.9,1317.5,196.8z"/>
				<path fill="#4696FF" d="M1372,273.1l-11.3-23.1l-5.7,2.8l16.7,34l32.7-19.1l-3.2-5.4l-22.6,13.2
					c44.6-147.6,143.1-216.9,297.4-286.1l-2.9-6.4c-91.1,40.8-151.9,77.9-197.3,120C1426.2,149.1,1393.1,203.2,1372,273.1z"/>
				<path fill="#4696FF" d="M270.9,367l25.2-4.1l-1-6.2l-37.4,6l8.7,36.8l6.1-1.5l-6.1-25.6c32.7,22,58.5,49.7,76.8,82.5
					c26.2,47.1,34.7,101.1,25.4,160.6c-7,44.6-22.1,77.9-26.6,87l6.3,3.1c4.6-9.4,20.1-43.5,27.2-89c9.6-61,0.8-116.6-26.2-165.1
					C330.8,418,304.3,389.6,270.9,367z"/>
				<path fill="#4696FF" d="M1221.9,286.6c-26,0-51.7,3.7-76.4,10.9l12.9-22l-5.4-3.2l-19.1,32.6l33.9,16.7l2.8-5.7l-23.6-11.6
					c24.2-7.1,49.4-10.8,74.9-10.8c70.5,0,136.8,27.5,186.6,77.3c49.8,49.8,77.3,116.1,77.3,186.6c0,39.9-8.7,78.3-25.9,114.1l6.3,3
					c17.6-36.7,26.5-76.1,26.5-117.1c0-72.4-28.2-140.4-79.4-191.6S1294.3,286.6,1221.9,286.6z"/>
				<path fill="#4696FF" d="M450.6,426.5l25,5l1.2-6.2l-37.1-7.4l-4.7,37.5l6.3,0.8l3.3-26.1c22.9,32,37.4,67.1,43,104.2
					c8,53.3-2.9,106.9-32.5,159.3c-22.2,39.3-48,65.2-55.4,72.2l4.8,5.1c7.6-7.2,34-33.7,56.7-73.8c30.4-53.8,41.6-108.9,33.4-163.8
					C488.7,495.2,474,459.3,450.6,426.5z"/>
				<path fill="#4696FF" d="M568.5,502l25,5l1.2-6.2l-37.1-7.4l-4.7,37.5l6.3,0.8l3.3-26.1c22.9,32,37.4,67.1,43,104.2
					c8,53.3-2.9,106.9-32.5,159.3c-22.2,39.3-48,65.2-55.4,72.2l4.8,5.1c7.6-7.2,34-33.7,56.7-73.8c30.4-53.8,41.6-108.9,33.4-163.8
					C606.7,570.7,591.9,534.8,568.5,502z"/>
				<path fill="#4696FF" d="M697.6,525.7l25,5l1.2-6.2l-37.1-7.4l-4.7,37.5l6.3,0.8l3.3-26.1c22.9,32,37.4,67.1,43,104.2
					c8,53.3-2.9,106.9-32.5,159.3c-22.2,39.3-48,65.2-55.4,72.2l4.8,5.1c7.6-7.2,34-33.7,56.7-73.8c30.4-53.8,41.6-108.9,33.4-163.8
					C735.7,594.5,721,558.6,697.6,525.7z"/>
				<path fill="#4696FF" d="M969.3,497.9l25,5l1.2-6.2l-37.1-7.4l-4.7,37.5l6.3,0.8l3.3-26.1c22.9,32,37.4,67.1,43,104.2
					c8,53.3-2.9,106.9-32.5,159.3c-22.2,39.3-48,65.2-55.4,72.2l4.8,5.1c7.6-7.2,34-33.7,56.7-73.8c30.4-53.8,41.6-108.9,33.3-163.8
					C1007.5,566.7,992.8,530.8,969.3,497.9z"/>
				<path fill="#4696FF" d="M13.3,776c28.3-43.6,49.6-91.1,63.4-141.3c13.4-48.7,19.3-98.8,17.7-149l18.1,18.2l4.5-4.4l-26.7-26.8
					l-24.8,28.6l4.8,4.1l17.1-19.7c1.6,49.6-4.2,99.2-17.4,147.3c-13.6,49.4-34.6,96.3-62.5,139.3c-58,89.4-141.5,156.4-241.6,193.9
					l2.5,6.6C-130.3,934.6-45.5,866.6,13.3,776z"/>
				<path fill="#4696FF" d="M211.9,501.2l4.8,4.1l17.1-19.7c1.6,49.6-4.2,99.2-17.4,147.3c-13.6,49.4-34.6,96.3-62.5,139.3
					c-58,89.4-141.5,156.4-241.6,193.9l2.5,6.6c101.5-38,186.2-106,245-196.7c28.3-43.6,49.6-91.1,63.4-141.3
					c13.4-48.7,19.3-98.8,17.7-149l18.1,18.2l4.5-4.4l-26.7-26.8L211.9,501.2z"/>
				<path fill="#4696FF" d="M1319.1,417.4c-72.2-54.8-175.6-40.6-230.4,31.7c-12.6,16.7-21.8,35.2-27.4,55.1l-11.8-22.4l-5.6,3
					l17.7,33.4l32.1-20.1l-3.3-5.3l-22.5,14.1c5.3-19.4,14.2-37.4,26.4-53.6c52.4-69.2,151.4-82.8,220.6-30.3
					c69.2,52.4,82.8,151.4,30.3,220.6s-151.4,82.8-220.6,30.3l-4.2,5.6c29.7,22.5,64.5,33.3,99.2,33.3c49.7,0,98.9-22.4,131.2-65
					C1405.5,575.5,1391.3,472.2,1319.1,417.4z"/>
				<path fill="#4696FF" d="M107.4,187.8l-2.5-6.5c-32.7,12.4-54.7,44.3-54.7,79.3c0,46.8,38.1,84.8,84.8,84.8s84.8-38.1,84.8-84.8
					c0-21.5-8-42-22.6-57.7c-12.9-13.9-29.9-23-48.4-26l19.2-13.5l-3.5-4.9L135,179.3l22.9,28l4.7-3.8l-16.2-19.8
					c17.5,2.6,33.6,11,45.7,24.1c13.4,14.4,20.8,33.2,20.8,52.9c0,42.9-34.9,77.8-77.8,77.8s-77.8-34.9-77.8-77.8
					C57.2,228.5,77.3,199.2,107.4,187.8z"/>
				<path fill="#4696FF" d="M1155,495.4c-29.2,36.5-23.3,90,13.2,119.2c15.2,12.2,33.7,18.6,52.9,18.6c3.1,0,6.3-0.2,9.5-0.5
					c22.5-2.5,42.7-13.6,56.9-31.3c14.2-17.7,20.6-39.8,18.1-62.4c-2.5-22.5-13.6-42.7-31.3-56.9l-4.4,5.5
					c16.2,13,26.4,31.5,28.7,52.2s-3.6,41-16.6,57.2c-26.8,33.5-75.9,38.9-109.4,12.1c-33.5-26.8-38.9-75.9-12.1-109.4
					c17.6-22,46-32.7,73.6-28.1l-21.8,14.2l3.3,5.1l30.7-19.9l-22.1-29.1l-4.9,3.7l14.4,18.9C1204,460.2,1173.8,471.8,1155,495.4z"
					/>
			</g>
			<g>
				<path fill="#4696FF" d="M732.1,62.3l-5.9,2.3l9.4,23.6c-30.8-14.5-63.9-21.8-98.3-21.8c-107.2,0-199.1,73.3-224.7,174.8h0.7
					c2.2,0,4.3,0.2,6.3,0.5c25.2-97.8,114-168.3,217.6-168.3c33.7,0,65.9,7.2,96,21.5l-25.2,8l1.9,6L746,97.4L732.1,62.3z"/>
				<path fill="#4696FF" d="M412.6,298.1c0-3.1,0.1-6.1,0.2-9.2c0.2-6,0.7-11.9,1.4-17.8c0.5-4.1,1.1-8.1,1.8-12.1
					c-1.6-0.6-3.3-1-5.2-1H409c-0.7,4-1.3,8.1-1.8,12.2c-0.7,6.2-1.2,12.5-1.5,18.8c-0.1,3-0.2,6-0.2,9c0,2.6,0.1,5.3,0.1,7.9
					c1.1,32.7,8.8,64.1,23.2,93.5l6.3-3.1c-13.9-28.4-21.4-58.8-22.5-90.5C412.6,303.3,412.6,300.7,412.6,298.1z"/>
			</g>
			<g>
				<path fill="#4696FF" d="M750.3,284.5c-0.5-5.5-1.4-11-2.5-16.4c-1.3-5.9-2.9-11.8-4.9-17.6c-20.1-57.2-74.4-95.6-135.1-95.6
					c-31.7,0-61.7,10.1-86.8,29.3c-24.3,18.6-42.4,44.9-50.8,74.1c-3.7,12.9-5.6,26.3-5.6,39.8h7c0-12.9,1.8-25.6,5.3-37.9
					c8-27.8,25.2-52.8,48.3-70.5c23.9-18.2,52.4-27.9,82.6-27.9c57.7,0,109.4,36.6,128.5,91c1.7,4.9,3.1,9.8,4.3,14.8
					c1.3,5.6,2.2,11.3,2.8,17.1c0.4,4.4,0.7,8.9,0.7,13.3c0,5.7-0.4,11.4-1,17c1.4,0.4,2.8,0.6,4.4,0.6c0.9,0,1.8-0.1,2.6-0.2
					c0.7-5.7,1-11.5,1-17.4C750.9,293.5,750.7,289,750.3,284.5z"/>
				<path fill="#4696FF" d="M743.2,332.3c-1.2,0-2.4-0.1-3.5-0.2c-2.4,9.3-5.8,18.3-10.1,27l0,0c-11.2,22.2-28.2,41-49.3,54.3
					c-21.7,13.7-46.7,20.9-72.5,20.9c-25.9,0-51-7.2-72.7-21l26.2-4.7l-1.1-6.2l-37.2,6.7l9.4,36.6l6.1-1.6l-6.3-24.5
					c22.7,14.1,48.7,21.6,75.6,21.6c27.1,0,53.4-7.6,76.2-21.9c22.2-14,40.1-33.7,51.8-57.1l0,0c4.9-9.7,8.6-19.9,11.1-30.3
					C745.7,332.2,744.4,332.3,743.2,332.3z"/>
			</g>
			<g>
				<path fill="#4696FF" d="M1050.4,287.1c-1.5,2.1-2.9,4.2-4.4,6.4c-6.5,9.6-12.9,19.4-19,29.4c-18.6,30.3-35.1,61.9-49.4,94.4
					l-8.5-24.3l-5.9,2.1l12.5,35.7l34.7-15.1l-2.5-5.8l-23.9,10.4c14-32,30.2-63.1,48.5-92.9c2.8-4.6,5.7-9.2,8.6-13.8
					c1.9-3,3.8-5.9,5.8-8.9c2.5-3.8,5-7.5,7.6-11.3c0.5-0.8,1.1-1.6,1.6-2.4c1.6-2.3,3.2-4.6,4.9-6.9c-1.6-1.7-3.7-2.8-6.2-3.3
					C1053.4,282.9,1051.9,285,1050.4,287.1z"/>
				<path fill="#4696FF" d="M1221.1,109.7c-54.9,41.3-104.1,89.7-146.1,143.8c-4,5.1-7.9,10.3-11.7,15.5c2.4,0.7,4.6,1.7,6.6,2.9
					c3.5-4.8,7.1-9.5,10.7-14.1c41.6-53.6,90.4-101.6,144.8-142.6L1221.1,109.7z"/>
			</g>
		</g>
	</g>
	<g>
		<path d="M419.7,241.7c-2-0.4-4.1-0.5-6.3-0.5h-0.7h-36.8v89.7h20.7V306h9.1c-0.1-2.6-0.1-5.2-0.1-7.9c0-3,0.1-6,0.2-9h-9.2v-31
			H409h1.8c1.9,0,3.6,0.3,5.2,1c5.7,2.2,9.2,8,9.2,14.5c0,7.7-4.8,14.4-12.4,15.4c-0.1,3.1-0.2,6.1-0.2,9.2c0,2.6,0.1,5.3,0.1,7.9
			h0.6c19.9,0,32.7-15,32.7-32.4C446,258.1,435.9,244.5,419.7,241.7z"/>
	</g>
	<g>
		<path d="M762,269.1v8.8c-2.4-4.5-8-8.5-14.2-9.9c1.2,5.4,2,10.9,2.5,16.4c7.1,1.5,11.7,8,11.7,15.4c0,7.7-4.7,14.2-12.1,15.5
			c-0.8,0.1-1.7,0.2-2.6,0.2c-1.6,0-3-0.2-4.4-0.6c-6.4-1.9-10.4-8-10.4-15.1c0-7.1,4.2-13.4,10.8-15.2c-0.6-5.8-1.5-11.5-2.8-17.1
			c-16.4,1.3-27.5,14.8-27.5,32.3c0,17.2,10.7,30.5,26.6,32.2c1.1,0.1,2.3,0.2,3.5,0.2c1.3,0,2.5-0.1,3.7-0.3
			c6.6-1.2,12.6-5.2,15.1-9.9v8.7h19.6v-61.7H762z"/>
	</g>
	<g>
		<g>
			<path d="M1052.3,318.4c-5.6,0-9.1-1.9-11.1-4.8c-2.9,4.6-5.8,9.2-8.6,13.8c5.2,3.3,11.9,5.2,19.9,5.2c17.7,0,28.7-9.5,30.5-21.1
				h-19.2C1062.4,315.3,1059.1,318.4,1052.3,318.4z"/>
			<path d="M1069.9,272c-2-1.2-4.2-2.2-6.6-2.9c-3.4-1.1-7.2-1.7-11.4-1.7c-21.4,0-32.8,14.5-32.8,32.5c0,9.2,2.7,17.1,8,22.8
				c6.1-9.9,12.4-19.7,19-29.4h-7.5c0-8.3,5.5-12.9,13.2-12.9c1.1,0,2.1,0.1,3,0.3c2.5,0.5,4.6,1.7,6.2,3.3c2.2,2.2,3.4,5.4,3.4,9.3
				h-9.9c-2.6,3.7-5.1,7.5-7.6,11.3h36.1c0.6-3.7,0.6-6.5,0.6-9.1C1083.7,285.9,1078.6,277.1,1069.9,272z"/>
		</g>
	</g>
	<path id="XMLID_320_" d="M501.2,286.9c-2.7-0.6-4.2-0.9-6.9-0.9c-10.8,0-17.8,5.6-17.8,20.7v24.1h-19.6v-61.7h19.6v10
		c2.8-5.8,10.2-11,18.8-11c2.4,0,4.1,0.3,5.9,1V286.9z"/>
	<g>
		<path fill="#4696FF" d="M586,239.9l-12.4,24.2l5.6,2.9l17.3-33.7l-34.8-14.8l-2.5,5.8l22.7,9.6c-16.7,6.6-30.5,18.6-39.5,33.7
			c2.6,0.3,5,0.8,7.3,1.6C558.2,256,570.8,245.5,586,239.9z"/>
		<path fill="#4696FF" d="M671.9,349.3c-2.6,3.9-5.7,7.6-9.1,11c-13.8,13.7-32.1,21.3-51.5,21.3c-32,0-59.2-20.7-69.1-49.3
			c-1.8-5.3-3.1-10.8-3.6-16.6c-0.2-2.4-0.4-4.7-0.4-7.2c0-1.8,0.1-3.7,0.2-5.5c0.5-6.2,1.7-12.3,3.7-18c-1.5-0.5-3.1-0.7-4.8-0.7
			c-0.8,0-1.6,0.1-2.4,0.2c-1.8,5.8-3,11.8-3.5,18.1c-0.1,2-0.2,4-0.2,6c0,2,0.1,4,0.3,6c0.5,6.2,1.6,12.2,3.4,17.9
			c10.2,32.5,40.6,56.1,76.4,56.1c21.3,0,41.4-8.3,56.5-23.3c3.7-3.7,7-7.7,9.9-12L671.9,349.3z"/>
	</g>
	<path id="XMLID_428_" d="M875.8,330.8v-33.3c0-8.3-2.8-13.3-9.5-13.3c-5.9,0-10.4,3.7-10.4,15.6v31h-19v-33.4
		c0-8.3-2.7-13.2-9.2-13.2c-6,0-10.6,3.8-10.6,16v30.6h-19v-61.7h19v9c2.7-5.8,9.2-10.5,17.8-10.5c10.8,0,16.1,4.9,18.7,11.1
		c3.2-6.4,10.2-11.1,19.3-11.1c17.9,0,21.6,12.2,21.6,25.2v38H875.8z"/>
	<path id="XMLID_440_" d="M648.9,330.4c0,11.1-3.3,18.4-9.7,23.3c-5.8,4.4-13.6,6.7-25,6.7c-11.5,0-19.1-2.8-24.2-7.2
		c-5.4-4.6-8.7-10.9-9-17.7h19.6c0.5,5.3,5.1,10.4,13.6,10.4c9.2,0,15.1-4.4,15.1-14v-10.4c-3.3,5.6-10.9,9.6-18.8,9.6
		c-17.8,0-30.2-12.9-30.2-31.3c0-18.4,11.9-32.4,30-32.4c7.8,0,15.6,3.8,19.1,10.4v-8.8h19.6V330.4z M599.8,299.9
		c0,8.6,5.9,15.8,14.6,15.8c9,0,14.9-7.2,14.9-15.8c0-8.5-5.9-15.8-14.9-15.8C605.7,284.2,599.8,291.5,599.8,299.9z"/>
	<path id="XMLID_437_" d="M709.5,286.9c-2.7-0.6-4.2-0.9-6.9-0.9c-10.8,0-17.8,5.6-17.8,20.7v24.1h-19.6v-61.7h19.6v10
		c2.8-5.8,10.2-11,18.8-11c2.4,0,4.1,0.3,5.9,1V286.9z"/>
	<path id="XMLID_313_" d="M988.3,330.8v-33.3c0-8.3-2.8-13.3-9.5-13.3c-5.9,0-10.4,3.7-10.4,15.6v31h-19v-33.4
		c0-8.3-2.7-13.2-9.2-13.2c-6,0-10.6,3.8-10.6,16v30.6h-19v-61.7h19v9c2.7-5.8,9.2-10.5,17.8-10.5c10.8,0,16.1,4.9,18.7,11.1
		c3.2-6.4,10.2-11.1,19.3-11.1c17.9,0,21.6,12.2,21.6,25.2v38H988.3z"/>
	<path d="M549.7,269.3c-2.3-0.7-4.7-1.3-7.3-1.6c-1.6-0.2-3.3-0.3-5.1-0.3c-21.3,0-34.2,14.9-34.2,32.5c0,17,11.9,31.4,31.7,32.5
		c-1.8-5.7-2.9-11.7-3.4-17.9c-5.4-2.4-8.7-8-8.7-14.6c0-7.8,4.7-14.4,12.2-15.5c0.8-0.1,1.6-0.2,2.4-0.2c1.7,0,3.3,0.3,4.8,0.7
		c6.2,2,10.1,8.1,10.1,15c0,8.3-5.4,15.1-13.6,15.7c0.6,5.7,1.8,11.3,3.6,16.6c18.6-2.1,29.5-16,29.5-32.3
		C571.7,286,563.7,273.8,549.7,269.3z"/>
</g>
<g id="Livello_1">
</g>
<g id="Livello_3">
</g>
</svg>
