<?xml version="1.0" encoding="UTF-8" standalone="no"?>
<!-- Generator: Adobe Illustrator 18.1.1, SVG Export Plug-In . SVG Version: 6.00 Build 0)  -->

<svg
   xmlns:dc="http://purl.org/dc/elements/1.1/"
   xmlns:cc="http://creativecommons.org/ns#"
   xmlns:rdf="http://www.w3.org/1999/02/22-rdf-syntax-ns#"
   xmlns:svg="http://www.w3.org/2000/svg"
   xmlns="http://www.w3.org/2000/svg"
   xmlns:sodipodi="http://sodipodi.sourceforge.net/DTD/sodipodi-0.dtd"
   xmlns:inkscape="http://www.inkscape.org/namespaces/inkscape"
   version="1.1"
   id="Livello_1"
   x="0px"
   y="0px"
   viewBox="0 0 200 47.451098"
   enable-background="new 0 0 680.3 170.1"
   xml:space="preserve"
   inkscape:version="0.48.4 r9939"
   width="100%"
   height="100%"
   sodipodi:docname="serpentine_marathon.svg"><metadata
     id="metadata6141"><rdf:RDF><cc:Work
         rdf:about=""><dc:format>image/svg+xml</dc:format><dc:type
           rdf:resource="http://purl.org/dc/dcmitype/StillImage" /><dc:title></dc:title></cc:Work></rdf:RDF></metadata><defs
     id="defs6139" /><sodipodi:namedview
     pagecolor="#000000"
     bordercolor="#666666"
     borderopacity="1"
     objecttolerance="10"
     gridtolerance="10"
     guidetolerance="10"
     inkscape:pageopacity="1"
     inkscape:pageshadow="2"
     inkscape:window-width="1331"
     inkscape:window-height="744"
     id="namedview6137"
     showgrid="false"
     inkscape:zoom="0.46450096"
     inkscape:cx="337.35"
     inkscape:cy="80.050001"
     inkscape:window-x="35"
     inkscape:window-y="24"
     inkscape:window-maximized="1"
     inkscape:current-layer="Livello_1"
     fit-margin-top="0"
     fit-margin-left="0"
     fit-margin-right="0"
     fit-margin-bottom="0" /><g
     id="g6087"
     transform="matrix(0.29638412,0,0,0.29638412,-0.82987554,-1.4819237)"><g
       id="g6089"><g
         id="g6091"><rect
           x="289"
           y="5.6999998"
           width="123.1"
           height="83.5"
           id="rect6093"
           style="fill:#ffffff" /><g
           id="g6095"><path
             d="M 277.3,19.1 V 5.7 h -33.2 c -6,0 -9.6,2.9 -9.6,9.8 v 73.7 h 42.9 V 75.8 H 249.3 V 53.4 h 25.1 V 39.9 H 249.3 V 19.1 h 28 z"
             id="path6097"
             inkscape:connector-curvature="0"
             style="fill:#ffffff" /><path
             d="m 488.8,5.7 c -4.8,0 -6.9,3.4 -6.9,7.1 0,3.7 2.2,6.7 6.9,6.7 h 10.8 v 69.7 h 14.6 V 19.4 h 17.2 V 5.7 h -42.6 z"
             id="path6099"
             inkscape:connector-curvature="0"
             style="fill:#ffffff" /><path
             d="m 555,12.4 c 0,-5.2 -3.3,-7.2 -7.4,-7.2 -4.1,0 -7.4,2.1 -7.4,7.2 V 89.2 H 555 V 12.4 z"
             id="path6101"
             inkscape:connector-curvature="0"
             style="fill:#ffffff" /><path
             d="m 115.3,89.2 h 14.8 V 55.1 h 6.5 l 15.5,30.5 c 1.6,3.1 3.8,4.5 6.9,4.5 4.1,0 7.4,-2.4 7.4,-6.7 0,-1.4 -0.5,-3.1 -1.4,-4.6 l -14.3,-26 c 10.5,-4 14.6,-12.9 14.6,-22.7 0,-16.9 -12.2,-24.3 -27.7,-24.3 h -12.9 c -5.9,0 -9.5,2.9 -9.5,9.8 v 73.6 z m 14.8,-70.4 h 7.2 c 7.2,0 13.1,2.9 13.1,11.2 0,9 -5.2,12.9 -13.1,12.9 h -7.2 V 18.8 z"
             id="path6103"
             inkscape:connector-curvature="0"
             style="fill:#ffffff" /><path
             d="m 175.7,89.2 h 14.8 V 55.6 h 7.2 c 17.9,0 27.4,-10.5 27.4,-25.8 0,-15.2 -10.7,-24.1 -25.7,-24.1 h -14.3 c -5.9,0 -9.5,2.9 -9.5,9.8 v 73.7 z m 34.8,-59.1 c 0,9 -5.9,12.4 -12.9,12.4 h -7.1 V 18.8 h 7.6 c 7.1,0 12.4,3.4 12.4,11.3"
             id="path6105"
             inkscape:connector-curvature="0"
             style="fill:#ffffff" /><path
             d="m 607.2,5.7 v 51.7 h -0.7 L 585.3,12 c -2.2,-4.8 -4.8,-6.9 -9,-6.9 h -0.7 c -3.4,0 -6.9,1.9 -6.9,8.8 v 75.3 h 13.6 v -52 h 0.7 l 20.5,46 c 1.9,4.3 4.6,6.7 9.1,6.7 h 0.7 c 4,0 7.4,-2.6 7.4,-8.4 V 5.7 h -13.5 z"
             id="path6107"
             inkscape:connector-curvature="0"
             style="fill:#ffffff" /><path
             d="M 677.5,19.1 V 5.7 h -33.2 c -6,0 -9.6,2.9 -9.6,9.8 v 73.7 h 42.9 V 75.8 H 649.5 V 53.4 h 25.1 V 39.9 H 649.5 V 19.1 h 28 z"
             id="path6109"
             inkscape:connector-curvature="0"
             style="fill:#ffffff" /><path
             d="m 461.2,5.7 v 51.7 h -0.7 L 439.4,12 c -2.2,-4.8 -4.8,-6.9 -9,-6.9 h -0.7 c -3.4,0 -6.9,1.9 -6.9,8.8 v 75.3 h 13.6 v -52 h 0.7 l 20.5,46 c 1.9,4.3 4.6,6.7 9.1,6.7 h 0.7 c 4,0 7.4,-2.6 7.4,-8.4 V 5.7 h -13.6 z"
             id="path6111"
             inkscape:connector-curvature="0"
             style="fill:#ffffff" /><path
             d="M 105,19.1 V 5.7 H 71.7 c -6,0 -9.6,2.9 -9.6,9.8 V 89.2 H 105 V 75.8 H 76.9 V 53.4 H 102 V 39.9 H 76.9 V 19.1 H 105 z"
             id="path6113"
             inkscape:connector-curvature="0"
             style="fill:#ffffff" /><path
             d="M 29.2,5 C 14.4,5 4.9,14 4.9,27.2 c 0,12.1 7.6,18.1 15.2,22.6 l 11.5,6.7 c 3.6,2.1 6.9,5 6.9,10.3 0,6.2 -3.4,10.5 -10,10.5 H 27.6 C 21.7,77.3 17.4,74.5 17.4,67.1 V 65.9 H 3 c -0.2,1.2 -0.2,2.4 -0.2,3.4 0,14.1 10,21.2 24.1,21.2 h 0.7 c 14.3,0 25.7,-8.6 25.7,-24.3 0,-12.9 -6.7,-19.1 -15.8,-24.3 L 26.7,35.7 c -4.6,-2.6 -6.9,-5 -6.9,-9.5 0,-4.6 3.8,-8.1 9.3,-8.1 h 0.7 c 4.3,0 7.1,1.6 8.3,4.8 1,2.8 3.4,4.5 6.9,4.5 4.5,0 7.2,-2.6 7.2,-6.9 0,-1.7 -0.3,-3.4 -0.9,-4.7 C 49.2,9.8 41.9,5 29.9,5 h -0.7 z"
             id="path6115"
             inkscape:connector-curvature="0"
             style="fill:#ffffff" /></g></g></g><g
       id="g6117"><path
         d="m 405.2,142.2 h 13.3 v 6.4 c 0,10.6 -5.4,16.5 -15,16.5 -10.4,0 -15.6,-6.8 -15.6,-21.7 0,-14 5.9,-21.6 16.4,-21.6 6.8,0 12.4,3 13.3,9.9 h -5.8 c -0.9,-3.7 -3.9,-4.5 -7.5,-4.5 -6.7,0 -10.1,5 -10.1,16.3 0,12.1 3.6,16.3 9.6,16.3 5.9,0 9.3,-3.6 9.3,-10.7 v -1.7 h -7.9 v -5.2 z"
         id="path6119"
         inkscape:connector-curvature="0"
         style="fill:#ffffff" /><path
         d="m 437.1,122.6 h 6.7 l 13.3,41.8 h -6.5 l -3.5,-11.9 h -14.2 l -3.8,11.9 h -6 l 14,-41.8 z m 8.5,24.9 -2,-7.1 c -1,-3.5 -2.5,-9 -3.1,-11.7 h -0.3 c -0.8,2.8 -2.4,8.1 -3.5,11.6 l -2.3,7.2 h 11.2 z"
         id="path6121"
         inkscape:connector-curvature="0"
         style="fill:#ffffff" /><path
         d="m 464.2,122.6 h 6.2 V 159 h 17.3 v 5.4 h -23.4 v -41.8 z"
         id="path6123"
         inkscape:connector-curvature="0"
         style="fill:#ffffff" /><path
         d="m 496.3,122.6 h 6.2 V 159 h 17.3 v 5.4 h -23.4 v -41.8 z"
         id="path6125"
         inkscape:connector-curvature="0"
         style="fill:#ffffff" /><path
         d="m 528.5,122.6 h 24.7 v 5.4 h -18.5 v 12.2 h 13.5 v 5.3 h -13.5 v 13.4 h 19.2 v 5.4 h -25.3 v -41.7 z"
         id="path6127"
         inkscape:connector-curvature="0"
         style="fill:#ffffff" /><path
         d="m 563.8,122.6 h 11.4 c 8.2,0 15.4,3 15.4,11.8 0,5.4 -2.3,10.4 -9.5,11.8 l 10.6,18.2 h -7 L 575,147 h -5.2 v 17.4 h -6 v -41.8 z m 11.3,19.3 c 6.5,0 9.4,-2.2 9.4,-7.5 0,-4.8 -3.3,-6.5 -9.3,-6.5 h -5.3 v 14 h 5.2 z"
         id="path6129"
         inkscape:connector-curvature="0"
         style="fill:#ffffff" /><path
         d="m 600.6,122.6 h 6.2 v 41.8 h -6.2 v -41.8 z"
         id="path6131"
         inkscape:connector-curvature="0"
         style="fill:#ffffff" /><path
         d="M 619.4,122.6 H 644 v 5.4 h -18.5 v 12.2 H 639 v 5.3 h -13.5 v 13.4 h 19.2 v 5.4 h -25.3 v -41.7 z"
         id="path6133"
         inkscape:connector-curvature="0"
         style="fill:#ffffff" /><path
         d="m 656.3,155.2 c 0.6,3.1 3,4.6 7.5,4.6 4.8,0 7.8,-2.4 7.8,-6.2 0,-3.6 -1.9,-5.2 -8,-7.8 l -1.4,-0.6 c -6.3,-2.7 -10.3,-5.3 -10.3,-12.3 0,-6.4 4.8,-11.1 12.8,-11.1 6.8,0 12,3 12.5,9.3 h -5.5 c -0.8,-3.2 -3.3,-4.1 -7,-4.1 -4.1,0 -7.1,1.9 -7.1,5.7 0,3.7 2.2,5.1 7.1,7.3 l 1.3,0.5 c 6.7,2.9 11.5,5.6 11.5,12.9 0,7.3 -5.8,11.5 -13.9,11.5 -7.4,0 -12.8,-3.3 -12.9,-9.8 h 5.6 z"
         id="path6135"
         inkscape:connector-curvature="0"
         style="fill:#ffffff" /></g></g></svg>